<svg xmlns="http://www.w3.org/2000/svg" viewBox="0 0 600 600" role="img" aria-label="大圆盘阵麦背面接口工程图">
  <style>.shell{fill:#f8fafc;stroke:#172033;stroke-width:7}.detail{fill:none;stroke:#64748b;stroke-width:3}.port{fill:#dbeafe;stroke:#2563eb;stroke-width:5}.hole{fill:#172033}.label{fill:#172033;font:700 20px Arial,"Microsoft YaHei",sans-serif;letter-spacing:0;text-anchor:middle}</style>
  <circle class="shell" cx="300" cy="300" r="282"/><circle class="detail" cx="300" cy="300" r="238"/>
  <g fill="#475569"><circle cx="300" cy="62" r="5"/><circle cx="468" cy="132" r="5"/><circle cx="538" cy="300" r="5"/><circle cx="468" cy="468" r="5"/><circle cx="300" cy="538" r="5"/><circle cx="132" cy="468" r="5"/><circle cx="62" cy="300" r="5"/><circle cx="132" cy="132" r="5"/></g>
  <rect class="detail" x="244" y="244" width="112" height="112" rx="24"/>
  <rect class="port" x="266" y="265" width="68" height="72" rx="6"/><path class="hole" d="M278 280h44v31h-8v15h-28v-15h-8z"/>
  <g stroke="#f8fafc" stroke-width="3"><path d="M286 283v23M294 283v23M302 283v23M310 283v23"/></g>
  <text class="label" x="300" y="386">RJ45</text>
</svg>
