<svg xmlns="http://www.w3.org/2000/svg" viewBox="0 0 724 124" role="img" aria-label="六麦处理器接口面板工程图">
  <style>
    .body{fill:#f8fafc;stroke:#172033;stroke-width:1.5}.bank{fill:#bbf7d0;stroke:#047857;stroke-width:1}.port{fill:#eff6ff;stroke:#2563eb;stroke-width:1}.hole{fill:#172033}.label{fill:#172033;font:700 6px Arial,"Microsoft YaHei",sans-serif;letter-spacing:0;text-anchor:middle}.small{fill:#475569;font:700 5px Arial,"Microsoft YaHei",sans-serif;letter-spacing:0;text-anchor:middle}
  </style>
  <rect class="body" x="1" y="1" width="722" height="122" rx="12"/>
  <g aria-label="SPK1 SPK2 SPK3 SPK4">
    <rect class="bank" x="16" y="21" width="58" height="30" rx="3"/><rect class="bank" x="16" y="65" width="58" height="30" rx="3"/>
    <rect class="hole" x="29" y="38" width="6" height="12" rx="1"/><rect class="hole" x="39" y="38" width="6" height="12" rx="1"/><rect class="hole" x="49" y="38" width="6" height="12" rx="1"/><rect class="hole" x="59" y="38" width="6" height="12" rx="1"/>
    <rect class="hole" x="29" y="80" width="6" height="12" rx="1"/><rect class="hole" x="39" y="80" width="6" height="12" rx="1"/><rect class="hole" x="49" y="80" width="6" height="12" rx="1"/><rect class="hole" x="59" y="80" width="6" height="12" rx="1"/>
    <text class="label" x="37" y="16">SPK1</text><text class="label" x="57" y="16">SPK2</text><text class="label" x="37" y="107">SPK3</text><text class="label" x="57" y="107">SPK4</text>
  </g>
  <g aria-label="MIC1 MIC2 MIC3 MIC4 MIC5 MIC6">
    <rect class="bank" x="94" y="43" width="100" height="28" rx="3"/><rect class="bank" x="94" y="73" width="100" height="28" rx="3"/>
    <rect class="hole" x="101" y="50" width="6" height="12" rx="1"/><rect class="hole" x="111" y="50" width="6" height="12" rx="1"/><rect class="hole" x="121" y="50" width="6" height="12" rx="1"/>
    <rect class="hole" x="131" y="50" width="6" height="12" rx="1"/><rect class="hole" x="141" y="50" width="6" height="12" rx="1"/><rect class="hole" x="151" y="50" width="6" height="12" rx="1"/>
    <rect class="hole" x="161" y="50" width="6" height="12" rx="1"/><rect class="hole" x="171" y="50" width="6" height="12" rx="1"/><rect class="hole" x="181" y="50" width="6" height="12" rx="1"/>
    <rect class="hole" x="101" y="80" width="6" height="12" rx="1"/><rect class="hole" x="111" y="80" width="6" height="12" rx="1"/><rect class="hole" x="121" y="80" width="6" height="12" rx="1"/>
    <rect class="hole" x="131" y="80" width="6" height="12" rx="1"/><rect class="hole" x="141" y="80" width="6" height="12" rx="1"/><rect class="hole" x="151" y="80" width="6" height="12" rx="1"/>
    <rect class="hole" x="161" y="80" width="6" height="12" rx="1"/><rect class="hole" x="171" y="80" width="6" height="12" rx="1"/><rect class="hole" x="181" y="80" width="6" height="12" rx="1"/>
    <text class="label" x="144" y="37">MIC 1 - 6</text>
  </g>
  <g aria-label="LINE IN 1 2 3 4">
    <rect class="bank" x="204" y="43" width="68" height="28" rx="3"/><rect class="bank" x="204" y="73" width="68" height="28" rx="3"/>
    <rect class="hole" x="211" y="50" width="6" height="12" rx="1"/><rect class="hole" x="221" y="50" width="6" height="12" rx="1"/><rect class="hole" x="231" y="50" width="6" height="12" rx="1"/>
    <rect class="hole" x="241" y="50" width="6" height="12" rx="1"/><rect class="hole" x="251" y="50" width="6" height="12" rx="1"/><rect class="hole" x="261" y="50" width="6" height="12" rx="1"/>
    <rect class="hole" x="211" y="80" width="6" height="12" rx="1"/><rect class="hole" x="221" y="80" width="6" height="12" rx="1"/><rect class="hole" x="231" y="80" width="6" height="12" rx="1"/>
    <rect class="hole" x="241" y="80" width="6" height="12" rx="1"/><rect class="hole" x="251" y="80" width="6" height="12" rx="1"/><rect class="hole" x="261" y="80" width="6" height="12" rx="1"/>
    <text class="label" x="238" y="37">LINE IN</text>
  </g>
  <g aria-label="LINE OUT 1 2 3 4">
    <rect class="bank" x="289" y="43" width="68" height="28" rx="3"/><rect class="bank" x="289" y="73" width="68" height="28" rx="3"/>
    <rect class="hole" x="296" y="50" width="6" height="12" rx="1"/><rect class="hole" x="306" y="50" width="6" height="12" rx="1"/><rect class="hole" x="316" y="50" width="6" height="12" rx="1"/>
    <rect class="hole" x="326" y="50" width="6" height="12" rx="1"/><rect class="hole" x="336" y="50" width="6" height="12" rx="1"/><rect class="hole" x="346" y="50" width="6" height="12" rx="1"/>
    <rect class="hole" x="296" y="80" width="6" height="12" rx="1"/><rect class="hole" x="306" y="80" width="6" height="12" rx="1"/><rect class="hole" x="316" y="80" width="6" height="12" rx="1"/>
    <rect class="hole" x="326" y="80" width="6" height="12" rx="1"/><rect class="hole" x="336" y="80" width="6" height="12" rx="1"/><rect class="hole" x="346" y="80" width="6" height="12" rx="1"/>
    <text class="label" x="323" y="37">LINE OUT</text>
  </g>
  <g aria-label="EXTMIC"><rect class="port" x="378" y="45" width="40" height="42" rx="4"/><path class="hole" d="M386 55h24v18h-5v8h-14v-8h-5z"/><text class="label" x="398" y="101">EXTMIC</text></g>
  <g aria-label="LAN"><rect class="port" x="434" y="45" width="40" height="42" rx="4"/><path class="hole" d="M442 55h24v18h-5v8h-14v-8h-5z"/><text class="label" x="454" y="101">LAN</text></g>
  <g aria-label="USB"><rect class="port" x="488" y="49" width="36" height="36" rx="6"/><rect class="hole" x="497" y="56" width="18" height="22" rx="3"/><text class="label" x="506" y="101">USB</text></g>
  <g aria-label="HOST"><rect class="port" x="538" y="52" width="40" height="28" rx="5"/><rect class="hole" x="547" y="58" width="22" height="10" rx="2"/><text class="small" x="558" y="101">HOST</text></g>
  <g aria-label="RS232"><rect class="bank" x="596" y="51" width="39" height="33" rx="3"/><rect class="hole" x="602" y="61" width="7" height="12" rx="1"/><rect class="hole" x="612" y="61" width="7" height="12" rx="1"/><rect class="hole" x="622" y="61" width="7" height="12" rx="1"/><text class="small" x="615" y="101">RS232</text></g>
  <circle class="hole" cx="657" cy="67" r="5"/><text class="small" x="657" y="101">TUNING</text><circle class="hole" cx="691" cy="67" r="6"/><text class="small" x="691" y="101">PWR</text>
</svg>
