<svg xmlns="http://www.w3.org/2000/svg" viewBox="0 0 600 600" role="img" aria-label="小圆盘阵麦03背面接口工程图">
  <style>.shell{fill:#f8fafc;stroke:#172033;stroke-width:6}.detail{fill:none;stroke:#64748b;stroke-width:3}.port{fill:#eff6ff;stroke:#2563eb;stroke-width:4}.audio{fill:#dcfce7;stroke:#15803d}.hole{fill:#172033}.label{fill:#172033;font:700 17px Arial,"Microsoft YaHei",sans-serif;letter-spacing:0;text-anchor:middle}.small{fill:#475569;font:700 14px Arial,"Microsoft YaHei",sans-serif;letter-spacing:0;text-anchor:middle}</style>
  <circle class="shell" cx="300" cy="300" r="282"/><circle class="detail" cx="300" cy="300" r="224"/>
  <g aria-label="LINK"><rect class="port" x="260" y="54" width="80" height="76" rx="6"/><path class="hole" d="M274 69h52v34h-9v17h-34v-17h-9z"/><text class="label" x="300" y="151">LINK</text></g>
  <g aria-label="MIC OUT"><circle class="port audio" cx="162" cy="270" r="24"/><circle class="hole" cx="162" cy="270" r="9"/><text class="label" x="162" y="314">MIC OUT</text></g>
  <g aria-label="MIC"><rect class="port" x="266" y="398" width="80" height="78" rx="6"/><path class="hole" d="M280 414h52v34h-9v17h-34v-17h-9z"/><text class="label" x="306" y="500">MIC</text></g>
  <g aria-label="MODE"><rect class="port" x="202" y="402" width="40" height="48" rx="5"/><path class="hole" d="M210 410h8v31h-8zM226 410h8v31h-8z"/><text class="small" x="222" y="475">MODE</text></g>
  <g aria-label="TYPE C"><rect class="port" x="88" y="454" width="64" height="28" rx="14"/><rect class="hole" x="104" y="462" width="32" height="12" rx="6"/><text class="small" x="120" y="507">TYPE-C</text></g>
</svg>
