<svg xmlns="http://www.w3.org/2000/svg" viewBox="0 0 600 600" role="img" aria-label="小圆盘阵麦01背面接口工程图">
  <style>.shell{fill:#f8fafc;stroke:#172033;stroke-width:6}.detail{fill:none;stroke:#64748b;stroke-width:3}.port{fill:#eff6ff;stroke:#2563eb;stroke-width:4}.audio{fill:#dcfce7;stroke:#15803d}.hole{fill:#172033}.label{fill:#172033;font:700 17px Arial,"Microsoft YaHei",sans-serif;letter-spacing:0;text-anchor:middle}.small{fill:#475569;font:700 14px Arial,"Microsoft YaHei",sans-serif;letter-spacing:0;text-anchor:middle}</style>
  <circle class="shell" cx="300" cy="300" r="282"/><circle class="detail" cx="300" cy="300" r="224"/>
  <g aria-label="LINK"><rect class="port" x="260" y="125" width="80" height="76" rx="6"/><path class="hole" d="M274 140h52v34h-9v17h-34v-17h-9z"/><text class="label" x="300" y="222">LINK</text></g>
  <g aria-label="AUDIO OUT"><circle class="port audio" cx="171" cy="288" r="24"/><circle class="hole" cx="171" cy="288" r="9"/><text class="label" x="171" y="331">AUDIO OUT</text></g>
  <g aria-label="USB"><rect class="port" x="199" y="397" width="60" height="64" rx="5"/><rect class="hole" x="213" y="410" width="32" height="38" rx="4"/><text class="label" x="229" y="484">USB</text></g>
  <g aria-label="MIC"><rect class="port" x="269" y="397" width="80" height="72" rx="6"/><path class="hole" d="M283 411h52v34h-9v17h-34v-17h-9z"/><text class="label" x="309" y="492">MIC</text></g>
  <g aria-label="TYPE C"><rect class="port" x="90" y="448" width="62" height="28" rx="14"/><rect class="hole" x="105" y="456" width="32" height="12" rx="6"/><text class="small" x="121" y="500">TYPE-C</text></g>
</svg>
